<svg viewBox="0 0 64 64" xmlns="http://www.w3.org/2000/svg">
    <g id="Waiter">
        <path
            d="m14 21v-1.67a3.32918 3.32918 0 0 1 5.1-2.82 13.09712 13.09712 0 0 0 13.8 0 3.32918 3.32918 0 0 1 5.1 2.82v1.67h1a5.857 5.857 0 0 1 3 .81v-8.81a6.00475 6.00475 0 0 0 -6-6 5.91894 5.91894 0 0 0 -2.39.5 12.99447 12.99447 0 0 0 -23.61 7.5v6.81a5.857 5.857 0 0 1 3-.81z" />
        <path d="m25 44h2v4h-2z" />
        <path d="m23 44.618-4-2v6.764l4-2z" />
        <path
            d="m24.67627 53.28711a3.98045 3.98045 0 0 1 1.32373.99329 3.98045 3.98045 0 0 1 1.32373-.99329l2.70361-1.24711a13.60743 13.60743 0 0 0 1.80237-1.00726l-3.00378-1.50171a.98332.98332 0 0 1 -.82593.46897h-4a.98322.98322 0 0 1 -.82587-.46893l-3.00366 1.50183a13.60524 13.60524 0 0 0 1.80219 1.0071z" />
        <path
            d="m38 39.5791v-1.43841l-3.8-1.40069a11.88226 11.88226 0 0 1 -1.2.98193v.27807a6.9656 6.9656 0 0 1 -.56934 2.716 1.98087 1.98087 0 0 1 2.56934 1.90216v5.50049a13.735 13.735 0 0 0 3-8.53955z" />
        <path
            d="m28.62579 42.238a4.98235 4.98235 0 0 0 2.27393-3.29731 11.861 11.861 0 0 1 -9.79944 0 4.98223 4.98223 0 0 0 2.27393 3.29725.98213.98213 0 0 1 .62579-.23794h4a.98219.98219 0 0 1 .62579.238z" />
        <path
            d="m0 49.58v11.42a1.003 1.003 0 0 0 1 1h6v-21.28l-1.11.41a9.05013 9.05013 0 0 0 -5.89 8.45z" />
        <path
            d="m23.84 55.1-2.71-1.24a15.798 15.798 0 0 1 -9.13-14.28v-.7l-3 1.1v22.02h16v-5.08a2.022 2.022 0 0 0 -1.16-1.82z" />
        <path
            d="m45.38 43.91a5.76757 5.76757 0 0 1 1.27-2.03 8.43557 8.43557 0 0 0 -1.54-.75l-1.11-.41v5.52c.23-.17.46-.32.7-.47z" />
        <path
            d="m39.04 55 .02-.2a11.88384 11.88384 0 0 1 2.94-6.75v-8.07l-3-1.1v.7a15.798 15.798 0 0 1 -9.13 14.28l-2.71 1.24a2.022 2.022 0 0 0 -1.16 1.82v5.08h10v-4a3.00879 3.00879 0 0 1 3-3z" />
        <path d="m33 42.618-4 2v2.764l4 2z" />
        <path
            d="m14 39.5791a13.735 13.735 0 0 0 3 8.53955v-5.50049a1.98213 1.98213 0 0 1 2.56885-1.90332 6.9658 6.9658 0 0 1 -.56885-2.71484v-.27808a11.88226 11.88226 0 0 1 -1.2-.98192l-3.8 1.40069z" />
        <path
            d="m36 28v-8.67a1.33582 1.33582 0 0 0 -1.33-1.33 1.35906 1.35906 0 0 0 -.71.2 15.07739 15.07739 0 0 1 -15.92 0 1.35906 1.35906 0 0 0 -.71-.2 1.33582 1.33582 0 0 0 -1.33 1.33v8.67a10 10 0 0 0 20 0zm-15.29-1.29a1.0041 1.0041 0 0 1 -1.42-1.42 3.84477 3.84477 0 0 1 5.42 0 1.008 1.008 0 0 1 0 1.42 1.01409 1.01409 0 0 1 -1.42 0 1.81084 1.81084 0 0 0 -2.58 0zm8.84 6.12a6.37441 6.37441 0 0 1 -7.1 0 .99568.99568 0 1 1 1.1-1.66 4.41341 4.41341 0 0 0 4.9 0 .99568.99568 0 1 1 1.1 1.66zm3.16-6.12a1.01409 1.01409 0 0 1 -1.42 0 1.81084 1.81084 0 0 0 -2.58 0 1.0041 1.0041 0 0 1 -1.42-1.42 3.84477 3.84477 0 0 1 5.42 0 1.008 1.008 0 0 1 0 1.42z" />
        <path d="m13 31h1.38a11.9164 11.9164 0 0 1 -.38-3v-5h-1a4 4 0 0 0 0 8z" />
        <path
            d="m43 27a3.99887 3.99887 0 0 0 -4-4h-1v5a11.9164 11.9164 0 0 1 -.38 3h1.38a3.99891 3.99891 0 0 0 4-4z" />
        <path d="m63 57h-24a1 1 0 0 0 -1 1v4h26v-4a1 1 0 0 0 -1-1z" />
        <path d="m54.74 44.6a3.98992 3.98992 0 0 0 -7.48 0 11.95665 11.95665 0 0 1 7.48 0z" />
        <path d="m60.95 55a10.00015 10.00015 0 0 0 -19.9 0z" />
    </g>
</svg>